<?xml version="1.0" encoding="UTF-8"?><svg xmlns="http://www.w3.org/2000/svg" viewBox="0 0 32 32"><defs><style>.d{fill:#fff;}.e{isolation:isolate;}.f{fill:#3350de;}.g{fill:#ed9900;}.h{fill:#114567;}.i,.j{mix-blend-mode:multiply;}.i,.k{fill:#0b1d74;}.l{fill:#3282b8;}.m{fill:#f85523;}</style></defs><g class="e"><g id="a"/><g id="b"/><g id="c"><g><polygon class="d" points="29.22 7.3 26 8.92 26 8.92 26 8.92 24.42 9.72 21.26 11.31 21.26 11.31 21.25 11.32 19.22 12.34 18.6 12.65 16.01 13.96 16 13.96 16 13.96 16 11.49 16 11.49 15.41 11.19 15.4 11.19 15.4 11.19 12.94 9.94 12.93 11.81 12.93 12.41 10.31 11.09 10.31 8.62 7.1 7 7.1 9.47 5.99 8.91 5.99 8.3 5.99 6.44 5.24 6.07 5.25 6.06 5.79 5.79 5.84 5.76 8.86 4.24 9.3 4.02 9.4 3.97 11.61 5.09 11.62 5.09 12.16 5.36 13.28 5.93 13.29 5.93 16 7.3 16 7.3 18.88 5.86 20.08 5.25 20.57 5 20.57 5 20.59 4.99 22.54 4.01 22.61 3.97 22.66 4 26.16 5.76 26.18 5.77 26.76 6.06 26.76 6.07 28.61 7 29.22 7.3"/><polygon class="l" points="5.99 8.91 7.1 9.47 7.1 9.49 5.99 8.93 5.99 8.91"/><polygon class="l" points="10.31 11.09 12.93 12.41 12.93 12.45 10.31 11.12 10.31 11.09"/><polygon class="l" points="16 13.96 16 14.01 16 14.02 16 13.96 16 13.96"/><polygon class="k" points="18.63 11.97 28.66 6.97 29.22 7.3 18.6 12.67 18.63 11.97"/><polygon class="m" points="29.22 4.83 29.22 7.3 27.18 10.83 25.93 13 18.58 25.72 17.91 26.88 17.19 28.12 16 30.18 16 14.01 16 14.02 16 13.96 16 11.49 16 11.49 16 11.49 16 11.49 16.6 11.19 19.22 9.87 19.22 11.68 19.22 12.34 21.25 11.32 21.26 8.84 24.45 7.23 24.42 9.72 26 8.92 26 8.92 26 6.44 29.22 4.83"/><g class="j"><polygon class="g" points="23.53 14.21 25.93 13 27.18 10.83 23.53 12.66 23.53 14.21"/></g><g class="j"><polygon class="g" points="20.97 12.5 18.36 13.78 18.36 15.43 20.97 14.03 20.97 12.5"/></g><g class="j"><polygon class="g" points="20.7 15.84 20.7 17.34 16 19.86 16 18.21 20.7 15.84"/></g><g class="j"><polygon class="g" points="18.36 24.49 16 25.75 16 24.1 18.35 22.99 18.36 24.49"/></g><g class="j"><polygon class="g" points="18.58 25.72 17.19 26.38 17.19 28.12 17.91 26.88 18.58 25.72"/></g><g class="j"><polygon class="g" points="21.76 18.18 19.68 19.3 19.68 20.95 21.76 19.67 21.76 18.18"/></g><polygon class="f" points="19.22 9.87 16.6 11.19 16 11.49 16 11.49 15.41 11.19 15.41 11.19 16 10.88 16 10.88 18.62 9.56 19.22 9.87"/><polygon class="f" points="24.45 7.23 23.85 6.93 20.66 8.53 21.26 8.84 24.45 7.23"/><polygon class="k" points="20.66 8.53 20.66 11.01 21.26 11.32 21.26 8.84 20.66 8.53"/><polygon class="k" points="25.41 6.14 25.41 8.62 26 8.93 26.01 6.45 25.41 6.14"/><polygon class="k" points="6.6 8.61 7.1 8.86 7.1 9.49 5.99 8.93 5.99 8.3 6.6 8.61"/><polygon class="k" points="12.93 11.81 12.93 12.41 12.93 12.45 10.31 11.12 10.31 10.48 10.91 10.78 12.93 11.81"/><polygon class="l" points="12.94 9.94 15.4 11.19 15.4 11.19 12.94 9.94"/><polygon class="l" points="16.01 13.96 16.01 14.03 16 14.03 16 14.01 16 14.02 16 13.96 16 11.49 16 11.49 15.41 11.19 15.4 11.19 15.41 11.19 16 11.49 16 11.49 16 11.49 16.01 13.96"/><polygon class="k" points="16 11.49 16 11.49 16 11.49 15.41 11.19 15.4 11.19 15.4 11.19 12.94 9.94 13.54 9.64 16 10.88 16 10.88 16 11.49"/><polygon class="f" points="11.62 5.64 11.62 3.48 8.86 2.09 8.86 4.24 11.62 5.64"/><polygon class="m" points="12.16 3.21 12.16 5.36 11.62 5.64 11.62 3.48 12.16 3.21"/><polygon class="m" points="9.37 2.32 3.92 4.81 4.39 5.03 6.11 5.97 9.28 4.43 9.37 2.32"/><polygon class="k" points="12.16 3.21 11.62 3.48 9.36 2.34 3.95 4.81 4.37 5.02 4.4 5.04 5.84 5.76 6.18 5.93 6.6 6.14 5.99 6.44 5.99 6.44 5.24 6.07 2.78 4.82 3.38 4.52 8.86 2.09 9.4 1.82 12.16 3.21"/><polygon class="k" points="10.91 8.32 10.31 8.62 7.1 7 7.7 6.7 10.91 8.32"/><polygon class="m" points="10.91 8.32 10.91 10.78 10.91 10.78 10.31 11.09 10.31 8.62 10.91 8.32"/><polygon class="f" points="16 14.01 16 30.18 2.79 7.3 2.78 4.82 5.24 6.07 5.99 6.44 5.99 8.3 5.99 8.93 7.1 9.49 7.1 7 10.31 8.62 10.31 11.12 12.93 12.45 12.93 12.41 12.93 11.81 12.94 9.94 15.4 11.19 15.4 11.19 15.41 11.19 16 11.49 16 11.49 16 13.96 16 14.02 16 14.01"/><polygon class="l" points="5.99 6.43 5.99 6.44 5.24 6.07 2.78 4.82 5.25 6.06 5.99 6.43"/><polygon class="m" points="6.6 6.14 6.6 8.61 6.6 8.61 5.99 8.91 5.99 8.3 5.99 6.44 5.99 6.43 6.6 6.14"/><polygon class="h" points="3.95 4.81 3.95 4.81 3.38 4.52 3.94 4.81 3.95 4.81"/><polygon class="i" points="16.6 11.19 16 11.49 16 11.49 15.41 11.19 15.4 11.19 16 10.88 16 10.88 16.6 11.19 16.6 11.19"/><g><polygon class="m" points="16 7.77 16 5.69 18.87 4.25 18.88 6.32 16 7.77"/><polygon class="f" points="18.87 4.25 18.34 3.97 15.47 5.42 16 5.69 18.87 4.25"/></g><g><polygon class="f" points="16 7.77 16 5.69 13.28 4.32 13.28 6.4 16 7.77"/><polygon class="k" points="13.28 4.32 13.8 4.04 16.01 5.15 15.47 5.42 13.28 4.32"/></g><polygon class="i" points="15.47 5.42 16 5.69 16.54 5.42 16.01 5.15 15.47 5.42"/><polygon class="m" points="20.56 5.51 20.61 3.4 22.67 2.26 22.65 4.34 20.56 5.51"/><polygon class="f" points="29.22 4.83 26 6.45 25.41 6.14 28.03 4.82 22.55 2.39 20.61 3.4 20.07 3.13 22.56 1.85 23.09 2.11 23.09 2.11 23.09 2.11 28.62 4.52 29.22 4.83"/><polygon class="k" points="20.07 3.13 20.08 5.27 20.56 5.47 20.61 3.4 20.07 3.13"/><polygon class="k" points="22.54 2.39 22.54 4.4 25.96 5.89 28.02 4.82 22.54 2.39"/><polygon class="h" points="3.95 4.81 3.95 4.81 3.38 4.52 3.94 4.81 3.95 4.81"/><polygon class="k" points="11.62 4.98 13.28 5.8 13.28 5.26 12.15 4.74 11.62 4.98"/><polygon class="k" points="20.57 4.88 18.88 5.75 18.88 5.21 20.08 4.62 20.57 4.88"/><polygon class="f" points="11.61 4.97 11.62 5.64 13.28 6.4 13.29 5.8 11.61 4.97"/><polygon class="m" points="20.6 4.87 20.56 5.51 18.88 6.32 18.88 5.72 20.6 4.87"/></g></g></g></svg>